<svg width="44" height="42" viewBox="0 0 44 42" fill="none" xmlns="http://www.w3.org/2000/svg">
<g filter="url(#filter0_d_25_70)">
<path d="M22 26.25C24.7614 26.25 27 24.0114 27 21.25C27 18.4886 24.7614 16.25 22 16.25C19.2386 16.25 17 18.4886 17 21.25C17 24.0114 19.2386 26.25 22 26.25Z" fill="#323238"/>
<path d="M35.75 11.25H31.1406C30.9062 11.25 30.6156 11.0984 30.3891 10.8594L28.3625 7.66094C28.3305 7.61018 28.2947 7.56187 28.2555 7.51641C27.5555 6.7 26.6094 6.25 25.5938 6.25H18.4062C17.3906 6.25 16.4445 6.7 15.7445 7.51641C15.7053 7.56187 15.6695 7.61018 15.6375 7.66094L13.6109 10.8641C13.4375 11.0531 13.1938 11.2547 12.9375 11.2547V10.6297C12.9375 10.2982 12.8058 9.98022 12.5714 9.7458C12.337 9.51138 12.019 9.37969 11.6875 9.37969H9.8125C9.48098 9.37969 9.16304 9.51138 8.92862 9.7458C8.6942 9.98022 8.5625 10.2982 8.5625 10.6297V11.2547H8.25C7.25576 11.2557 6.30253 11.6511 5.59949 12.3542C4.89645 13.0572 4.50103 14.0104 4.5 15.0047V30C4.50103 30.9942 4.89645 31.9475 5.59949 32.6505C6.30253 33.3535 7.25576 33.749 8.25 33.75H35.75C36.7442 33.749 37.6975 33.3535 38.4005 32.6505C39.1035 31.9475 39.499 30.9942 39.5 30V15C39.499 14.0058 39.1035 13.0525 38.4005 12.3495C37.6975 11.6465 36.7442 11.251 35.75 11.25ZM22 28.75C20.5166 28.75 19.0666 28.3101 17.8332 27.486C16.5999 26.6619 15.6386 25.4906 15.0709 24.1201C14.5032 22.7497 14.3547 21.2417 14.6441 19.7868C14.9335 18.332 15.6478 16.9956 16.6967 15.9467C17.7456 14.8978 19.082 14.1835 20.5368 13.8941C21.9917 13.6047 23.4997 13.7532 24.8701 14.3209C26.2406 14.8886 27.4119 15.8499 28.236 17.0832C29.0601 18.3166 29.5 19.7666 29.5 21.25C29.4977 23.2384 28.7068 25.1448 27.3008 26.5508C25.8948 27.9568 23.9884 28.7477 22 28.75Z" fill="#323238"/>
</g>
<defs>
<filter id="filter0_d_25_70" x="-2" y="0" width="48" height="48" filterUnits="userSpaceOnUse" color-interpolation-filters="sRGB">
<feFlood flood-opacity="0" result="BackgroundImageFix"/>
<feColorMatrix in="SourceAlpha" type="matrix" values="0 0 0 0 0 0 0 0 0 0 0 0 0 0 0 0 0 0 127 0" result="hardAlpha"/>
<feOffset dy="4"/>
<feGaussianBlur stdDeviation="2"/>
<feComposite in2="hardAlpha" operator="out"/>
<feColorMatrix type="matrix" values="0 0 0 0 0 0 0 0 0 0 0 0 0 0 0 0 0 0 0.25 0"/>
<feBlend mode="normal" in2="BackgroundImageFix" result="effect1_dropShadow_25_70"/>
<feBlend mode="normal" in="SourceGraphic" in2="effect1_dropShadow_25_70" result="shape"/>
</filter>
</defs>
</svg>
